#tb 0: 1/1000
0,        -41,        -41,        0,   276480, 0x5f7a0d4f
0,         42,         42,        0,   276480, 0x5f7a0d4f
0,         83,         83,        0,   276480, 0x5f7a0d4f
0,        125,        125,        0,   276480, 0x5f7a0d4f
0,        167,        167,        0,   276480, 0x5f7a0d4f
0,        209,        209,        0,   276480, 0x5f7a0d4f
0,        250,        250,        0,   276480, 0x5f7a0d4f
0,        292,        292,        0,   276480, 0x5f7a0d4f
0,        334,        334,        0,   276480, 0x5f7a0d4f
0,        375,        375,        0,   276480, 0x5f7a0d4f
0,        417,        417,        0,   276480, 0x5f7a0d4f
0,        459,        459,        0,   276480, 0x5f7a0d4f
0,        501,        501,        0,   276480, 0x5f7a0d4f
0,        542,        542,        0,   276480, 0x5f7a0d4f
0,        584,        584,        0,   276480, 0x5f7a0d4f
0,        626,        626,        0,   276480, 0x5f7a0d4f
0,        667,        667,        0,   276480, 0x5f7a0d4f
0,        709,        709,        0,   276480, 0x5f7a0d4f
0,        751,        751,        0,   276480, 0x5f7a0d4f
0,        792,        792,        0,   276480, 0x5f7a0d4f
0,        834,        834,        0,   276480, 0x5f7a0d4f
0,        876,        876,        0,   276480, 0x5f7a0d4f
0,        918,        918,        0,   276480, 0x5f7a0d4f
0,        959,        959,        0,   276480, 0x5f7a0d4f
0,       1001,       1001,        0,   276480, 0x5f7a0d4f
0,       1043,       1043,        0,   276480, 0x5f7a0d4f
0,       1084,       1084,        0,   276480, 0x5f7a0d4f
0,       1126,       1126,        0,   276480, 0x5f7a0d4f
0,       1168,       1168,        0,   276480, 0x5f7a0d4f
0,       1210,       1210,        0,   276480, 0x5f7a0d4f
0,       1251,       1251,        0,   276480, 0x5f7a0d4f
0,       1293,       1293,        0,   276480, 0x5f7a0d4f
0,       1335,       1335,        0,   276480, 0x5f7a0d4f
0,       1376,       1376,        0,   276480, 0x75641594
0,       1418,       1418,        0,   276480, 0x32ee3526
0,       1460,       1460,        0,   276480, 0xcb53479a
0,       1502,       1502,        0,   276480, 0x7ca9658e
0,       1543,       1543,        0,   276480, 0x5ce39368
0,       1585,       1585,        0,   276480, 0x4ec1e418
0,       1627,       1627,        0,   276480, 0xb3790499
0,       1668,       1668,        0,   276480, 0xa9f1506f
0,       1710,       1710,        0,   276480, 0x85cbc3b5
0,       1752,       1752,        0,   276480, 0x377c7b46
0,       1793,       1793,        0,   276480, 0x1a61d8db
0,       1835,       1835,        0,   276480, 0xe1de7f0a
0,       1877,       1877,        0,   276480, 0x756a4a2e
0,       1919,       1919,        0,   276480, 0xcb379547
0,       1960,       1960,        0,   276480, 0xbae14484
0,       2002,       2002,        0,   276480, 0x8e12331c
0,       2044,       2044,        0,   276480, 0x99c085be
0,       2085,       2085,        0,   276480, 0xe479ffed
0,       2127,       2127,        0,   276480, 0x99c82949
0,       2169,       2169,        0,   276480, 0xac7672dd
0,       2211,       2211,        0,   276480, 0x1e4fae19
0,       2252,       2252,        0,   276480, 0x776412ef
0,       2294,       2294,        0,   276480, 0x7d9b579f
0,       2336,       2336,        0,   276480, 0x1cd1ab29
0,       2377,       2377,        0,   276480, 0x58ce0f38
0,       2419,       2419,        0,   276480, 0x5ab69b27
0,       2461,       2461,        0,   276480, 0x0afad610
0,       2503,       2503,        0,   276480, 0x9eca3f11
0,       2544,       2544,        0,   276480, 0xc3db9706
0,       2586,       2586,        0,   276480, 0xc9c57884
0,       2628,       2628,        0,   276480, 0xd9fbb2cf
0,       2669,       2669,        0,   276480, 0xdc07f3c9
0,       2711,       2711,        0,   276480, 0x000b5269
0,       2753,       2753,        0,   276480, 0x27ff7a5d
0,       2794,       2794,        0,   276480, 0xd92e2017
0,       2836,       2836,        0,   276480, 0x18d4b27d
0,       2878,       2878,        0,   276480, 0x70647530
0,       2920,       2920,        0,   276480, 0x97612c4b
0,       2961,       2961,        0,   276480, 0xc9d4ac78
0,       3003,       3003,        0,   276480, 0x4ec4d57f
0,       3045,       3045,        0,   276480, 0xdf4e04d7
0,       3086,       3086,        0,   276480, 0xbd98f57c
0,       3128,       3128,        0,   276480, 0x7247ea3e
0,       3170,       3170,        0,   276480, 0xa5d670ec
0,       3212,       3212,        0,   276480, 0x5163b29b
0,       3253,       3253,        0,   276480, 0x99170e64
0,       3295,       3295,        0,   276480, 0x37f4c0b0
0,       3337,       3337,        0,   276480, 0x7a4f2561
0,       3378,       3378,        0,   276480, 0x8a4e991f
0,       3420,       3420,        0,   276480, 0x6a45425f
0,       3462,       3462,        0,   276480, 0x1f0e2bb6
0,       3504,       3504,        0,   276480, 0xd75482c6
0,       3545,       3545,        0,   276480, 0x7bf6b1ef
0,       3587,       3587,        0,   276480, 0x6de1e34b
0,       3629,       3629,        0,   276480, 0x4526c89b
0,       3670,       3670,        0,   276480, 0xf964e18e
0,       3712,       3712,        0,   276480, 0xdcaaa99a
0,       3754,       3754,        0,   276480, 0xd1e98808
0,       3795,       3795,        0,   276480, 0x556b2365
0,       3837,       3837,        0,   276480, 0x0cf65540
0,       3879,       3879,        0,   276480, 0x6e2d524e
0,       3921,       3921,        0,   276480, 0x22c50a3d
0,       3962,       3962,        0,   276480, 0x293f19af
0,       4004,       4004,        0,   276480, 0xf4b1c461
0,       4046,       4046,        0,   276480, 0x62b76407
0,       4087,       4087,        0,   276480, 0x51e9b3eb
0,       4129,       4129,        0,   276480, 0x7b910bc7
0,       4171,       4171,        0,   276480, 0x6dd14ca6
0,       4213,       4213,        0,   276480, 0x441f7afd
0,       4254,       4254,        0,   276480, 0xfb01efc6
0,       4296,       4296,        0,   276480, 0x4f73ccea
0,       4338,       4338,        0,   276480, 0x5ac8e06f
0,       4379,       4379,        0,   276480, 0x294bb441
0,       4421,       4421,        0,   276480, 0xe04ac45e
0,       4463,       4463,        0,   276480, 0xa7a38d41
0,       4505,       4505,        0,   276480, 0xf688a3ed
0,       4546,       4546,        0,   276480, 0x58f275ea
0,       4588,       4588,        0,   276480, 0xf0b3b71b
0,       4630,       4630,        0,   276480, 0x3ce773bf
0,       4671,       4671,        0,   276480, 0x01840548
0,       4713,       4713,        0,   276480, 0x674e34e4
0,       4755,       4755,        0,   276480, 0x41dda2d9
0,       4796,       4796,        0,   276480, 0xc5b60838
0,       4838,       4838,        0,   276480, 0x9b209f41
0,       4880,       4880,        0,   276480, 0xf46ba7fb
0,       4922,       4922,        0,   276480, 0x28b54815
0,       4963,       4963,        0,   276480, 0xb605a933
0,       5005,       5005,        0,   276480, 0x34484aff
0,       5047,       5047,        0,   276480, 0xaf2b5d89
0,       5088,       5088,        0,   276480, 0x8facba58
0,       5130,       5130,        0,   276480, 0xbbe3e99f
0,       5172,       5172,        0,   276480, 0x02162c7c
0,       5214,       5214,        0,   276480, 0x28a63236
0,       5255,       5255,        0,   276480, 0x1ad43fd7
0,       5297,       5297,        0,   276480, 0xe37883e5
0,       5339,       5339,        0,   276480, 0x2b8a89c5
0,       5380,       5380,        0,   276480, 0x71507bd2
0,       5422,       5422,        0,   276480, 0x35626022
0,       5464,       5464,        0,   276480, 0x461fc3e7
0,       5506,       5506,        0,   276480, 0xce5af1ec
0,       5547,       5547,        0,   276480, 0x7c1139b3
0,       5589,       5589,        0,   276480, 0x7fd73a99
0,       5631,       5631,        0,   276480, 0x4ae4c3a6
0,       5672,       5672,        0,   276480, 0xcb60725a
0,       5714,       5714,        0,   276480, 0xb52e1aa2
0,       5756,       5756,        0,   276480, 0xd6f82cae
0,       5797,       5797,        0,   276480, 0x6310e665
0,       5839,       5839,        0,   276480, 0xfa88a483
0,       5881,       5881,        0,   276480, 0xf88f75d4
0,       5923,       5923,        0,   276480, 0x04a8e3ee
0,       5964,       5964,        0,   276480, 0x54766a12
0,       6006,       6006,        0,   276480, 0x0b41f0d7
0,       6048,       6048,        0,   276480, 0xa29f5b01
0,       6089,       6089,        0,   276480, 0x754ceaf5
0,       6131,       6131,        0,   276480, 0x150c0423
0,       6173,       6173,        0,   276480, 0xde084059
0,       6215,       6215,        0,   276480, 0x5a38b4af
0,       6256,       6256,        0,   276480, 0xfcebc261
0,       6298,       6298,        0,   276480, 0x0eb9770d
0,       6340,       6340,        0,   276480, 0x046394ae
0,       6381,       6381,        0,   276480, 0x3d3ca985
0,       6423,       6423,        0,   276480, 0x94a03c75
0,       6465,       6465,        0,   276480, 0x800eea2d
0,       6507,       6507,        0,   276480, 0x6a841f41
0,       6548,       6548,        0,   276480, 0x2f98911c
0,       6590,       6590,        0,   276480, 0x923b9937
0,       6632,       6632,        0,   276480, 0xe82f8e0f
0,       6673,       6673,        0,   276480, 0xee82d657
0,       6715,       6715,        0,   276480, 0xefab7ffd
0,       6757,       6757,        0,   276480, 0x6b9fbc80
0,       6798,       6798,        0,   276480, 0x4a1ada47
0,       6840,       6840,        0,   276480, 0x6d4b49d7
0,       6882,       6882,        0,   276480, 0xe4bdbd1e
0,       6924,       6924,        0,   276480, 0x225a56c0
0,       6965,       6965,        0,   276480, 0xd4adadad
0,       7007,       7007,        0,   276480, 0xff4e1a8c
0,       7049,       7049,        0,   276480, 0xf58b1b7c
0,       7090,       7090,        0,   276480, 0xbaffcdcc
0,       7132,       7132,        0,   276480, 0x374f88f0
0,       7174,       7174,        0,   276480, 0x3d861ae6
0,       7216,       7216,        0,   276480, 0xeb6eb88f
0,       7257,       7257,        0,   276480, 0xdb753d35
0,       7299,       7299,        0,   276480, 0x9aa543af
0,       7341,       7341,        0,   276480, 0xb24c8016
0,       7382,       7382,        0,   276480, 0xea80a82e
0,       7424,       7424,        0,   276480, 0x2aae902a
0,       7466,       7466,        0,   276480, 0x5bba3cfb
0,       7508,       7508,        0,   276480, 0x5c6e97a9
0,       7549,       7549,        0,   276480, 0x9b9ee961
0,       7591,       7591,        0,   276480, 0xaa12b6fd
0,       7633,       7633,        0,   276480, 0xe9d2439f
0,       7674,       7674,        0,   276480, 0xbf09053c
0,       7716,       7716,        0,   276480, 0x50c31e73
0,       7758,       7758,        0,   276480, 0xdd9fb89f
0,       7799,       7799,        0,   276480, 0x3e4e5aec
0,       7841,       7841,        0,   276480, 0x0b752d28
0,       7883,       7883,        0,   276480, 0xaf82399a
0,       7925,       7925,        0,   276480, 0x7ce5f23c
0,       7966,       7966,        0,   276480, 0xad135d0f
0,       8008,       8008,        0,   276480, 0x55dadd30
0,       8050,       8050,        0,   276480, 0x5aaa7519
0,       8091,       8091,        0,   276480, 0xe45a5599
0,       8133,       8133,        0,   276480, 0xc8e89913
0,       8175,       8175,        0,   276480, 0x2f447fd3
0,       8217,       8217,        0,   276480, 0x704411fb
0,       8258,       8258,        0,   276480, 0x9d7430a1
0,       8300,       8300,        0,   276480, 0x24dd5fd3
0,       8342,       8342,        0,   276480, 0x51cb657c
0,       8383,       8383,        0,   276480, 0x2c230702
0,       8425,       8425,        0,   276480, 0x4a4f76cd
0,       8467,       8467,        0,   276480, 0xdcd71e88
0,       8509,       8509,        0,   276480, 0x87160f99
0,       8550,       8550,        0,   276480, 0x27f54854
0,       8592,       8592,        0,   276480, 0x694d76e3
0,       8634,       8634,        0,   276480, 0xcbe93c19
0,       8675,       8675,        0,   276480, 0x50742e1b
0,       8717,       8717,        0,   276480, 0x525463e2
0,       8759,       8759,        0,   276480, 0x819898f9
0,       8800,       8800,        0,   276480, 0x08fac755
0,       8842,       8842,        0,   276480, 0x35c46927
0,       8884,       8884,        0,   276480, 0xeeed00fc
0,       8926,       8926,        0,   276480, 0xb6f99ee3
0,       8967,       8967,        0,   276480, 0xd87f4c73
0,       9009,       9009,        0,   276480, 0xde97d9fd
0,       9051,       9051,        0,   276480, 0xefc83107
0,       9092,       9092,        0,   276480, 0xbb22e024
0,       9134,       9134,        0,   276480, 0x53a7cfcb
0,       9176,       9176,        0,   276480, 0xbe1fbb19
0,       9218,       9218,        0,   276480, 0x300f922a
0,       9259,       9259,        0,   276480, 0x826fc3bd
0,       9301,       9301,        0,   276480, 0x679aa57a
0,       9343,       9343,        0,   276480, 0x5497097b
0,       9384,       9384,        0,   276480, 0x679a53f8
0,       9426,       9426,        0,   276480, 0x976c9e93
0,       9468,       9468,        0,   276480, 0xe80f87f2
0,       9510,       9510,        0,   276480, 0xdc2d7c6c
0,       9551,       9551,        0,   276480, 0xb194656e
0,       9593,       9593,        0,   276480, 0xf002c5ca
0,       9635,       9635,        0,   276480, 0x43fc1c64
0,       9676,       9676,        0,   276480, 0xf62d8581
0,       9718,       9718,        0,   276480, 0xb243dda5
0,       9760,       9760,        0,   276480, 0x1700efbb
0,       9801,       9801,        0,   276480, 0x9ebe6ba2
0,       9843,       9843,        0,   276480, 0x8f316c66
0,       9885,       9885,        0,   276480, 0x6348ecf5
0,       9927,       9927,        0,   276480, 0x34b5b78a
